<?xml version="1.0" standalone="no"?>
<!DOCTYPE svg PUBLIC "-//W3C//DTD SVG 20010904//EN"
 "http://www.w3.org/TR/2001/REC-SVG-20010904/DTD/svg10.dtd">
<svg version="1.0" xmlns="http://www.w3.org/2000/svg"
 width="6495.000000pt" height="4000.000000pt" viewBox="0 0 6495.000000 4000.000000"
 preserveAspectRatio="xMidYMid meet">
<metadata>
Created by potrace 1.16, written by Peter Selinger 2001-2019
</metadata>
<g transform="translate(0.000000,4000.000000) scale(0.100000,-0.100000)"
fill="#000000" stroke="none">
<path d="M45620 24800 c-30 -5 -75 -11 -100 -15 -1083 -153 -2105 -1116 -2894
-2730 -62 -126 -130 -270 -151 -320 -21 -49 -41 -93 -44 -97 -4 -4 -37 47 -75
114 -201 353 -470 703 -743 969 -65 63 -157 160 -204 215 -123 141 -344 354
-477 459 -222 176 -468 323 -667 400 -38 14 -79 30 -90 35 -57 25 -273 83
-355 95 -24 4 -47 8 -50 10 -3 2 -32 6 -65 10 -33 4 -89 11 -125 15 -88 11
-480 5 -555 -9 -33 -6 -78 -13 -100 -16 -239 -36 -576 -159 -830 -305 -501
-287 -970 -770 -1325 -1366 -70 -116 -218 -406 -273 -532 -188 -432 -318 -920
-354 -1338 -8 -89 -11 -594 -4 -689 4 -60 29 -292 35 -320 2 -11 7 -42 10 -68
4 -27 9 -59 12 -70 2 -12 7 -40 9 -61 3 -21 7 -42 10 -46 2 -3 7 -27 10 -52 4
-25 20 -101 36 -169 35 -149 34 -143 50 -199 7 -25 13 -49 15 -55 37 -151 197
-615 269 -780 7 -16 23 -55 35 -85 74 -182 265 -574 392 -805 385 -697 907
-1433 1502 -2115 502 -576 1183 -1253 1721 -1711 47 -40 85 -76 85 -79 0 -4
-78 -44 -172 -90 -229 -110 -758 -360 -763 -360 -2 0 -37 -15 -77 -34 -109
-51 -492 -212 -693 -291 -111 -44 -572 -215 -631 -234 -33 -10 -165 -55 -294
-99 -366 -124 -984 -321 -1057 -337 -12 -3 -35 -10 -50 -16 -16 -6 -37 -13
-49 -15 -12 -2 -57 -16 -100 -30 -43 -14 -86 -27 -94 -29 -8 -2 -100 -29 -205
-59 -104 -31 -197 -58 -205 -60 -8 -2 -64 -19 -125 -36 -60 -17 -141 -40 -180
-51 -38 -11 -81 -23 -95 -28 -14 -5 -43 -14 -65 -20 -209 -58 -475 -134 -495
-140 -14 -5 -43 -14 -65 -20 -103 -28 -675 -193 -710 -205 -22 -7 -65 -20 -95
-29 -84 -25 -257 -77 -330 -100 -36 -11 -66 -20 -67 -19 -2 1 -27 -7 -55 -17
-29 -10 -107 -35 -173 -56 -347 -108 -982 -323 -1178 -399 -67 -25 -173 -65
-307 -116 -47 -18 -109 -43 -138 -56 -29 -13 -57 -24 -62 -24 -5 0 -53 -19
-107 -42 -256 -108 -446 -190 -533 -230 -52 -25 -124 -57 -160 -73 -123 -55
-645 -322 -810 -415 -517 -291 -944 -578 -1380 -927 -129 -103 -310 -245 -401
-315 l-167 -126 -62 72 c-411 470 -995 985 -1785 1576 -531 397 -1091 790
-2073 1455 -325 221 -586 398 -692 471 -58 40 -150 103 -205 141 -293 199
-908 632 -1245 878 -656 478 -1352 1025 -1751 1377 l-81 71 29 23 c15 14 40
34 56 45 l27 21 73 -68 c39 -38 86 -81 103 -97 l31 -28 139 112 c880 710 1615
1525 2289 2539 612 922 1227 2084 1566 2962 308 799 452 1446 452 2038 0 655
-167 1110 -558 1520 -34 36 -77 90 -96 120 -146 235 -435 506 -723 677 -320
190 -585 272 -906 279 -219 5 -387 -21 -588 -92 -586 -206 -1143 -733 -1552
-1469 -40 -71 -73 -131 -74 -132 -5 -7 -131 156 -188 242 -242 369 -546 651
-883 817 -61 30 -126 60 -145 67 -19 7 -44 17 -55 21 -63 26 -208 65 -320 85
-132 24 -384 29 -525 10 -19 -2 -55 -7 -80 -10 -135 -17 -371 -91 -505 -157
-430 -215 -809 -648 -1040 -1188 -15 -36 -35 -83 -45 -105 -48 -110 -178 -521
-194 -615 -2 -14 -9 -45 -16 -69 -6 -24 -15 -67 -20 -95 -5 -28 -12 -62 -15
-76 -15 -60 -54 -314 -64 -410 -6 -58 -14 -125 -16 -150 -33 -311 -38 -823
-11 -1105 8 -88 17 -169 20 -180 2 -11 7 -49 11 -85 4 -36 16 -110 27 -165 10
-55 21 -109 22 -120 15 -95 71 -329 121 -505 59 -211 174 -555 214 -645 5 -11
17 -40 26 -65 9 -25 23 -58 30 -75 7 -16 35 -82 61 -145 51 -121 273 -572 345
-700 270 -481 620 -991 989 -1440 410 -500 789 -896 1449 -1516 l54 -51 -164
-114 c-481 -335 -1073 -676 -1524 -879 -33 -15 -85 -39 -115 -53 -207 -96
-615 -259 -870 -348 -161 -56 -557 -182 -640 -203 -8 -2 -116 -31 -240 -64
-124 -33 -281 -72 -350 -87 -69 -14 -138 -31 -155 -36 -16 -5 -48 -11 -70 -15
-22 -3 -71 -12 -110 -21 -38 -8 -81 -17 -95 -19 -14 -3 -44 -9 -68 -15 -24 -5
-60 -11 -80 -14 -20 -3 -75 -12 -122 -20 -47 -9 -96 -18 -110 -20 -14 -2 -72
-11 -130 -19 -58 -9 -116 -18 -130 -20 -14 -3 -45 -7 -70 -10 -25 -3 -119 -15
-210 -26 -91 -12 -190 -23 -220 -26 -30 -3 -95 -9 -144 -15 -49 -5 -121 -12
-160 -15 -39 -2 -132 -9 -206 -14 -374 -27 -612 -34 -1120 -34 -550 -1 -796 6
-1110 28 -41 3 -115 8 -165 11 -49 3 -112 7 -140 10 -27 2 -84 7 -125 10 -145
11 -196 16 -270 24 -41 5 -82 9 -90 9 -15 0 -443 48 -510 57 -19 3 -55 7 -80
10 -25 2 -63 7 -85 11 -77 11 -91 13 -175 24 -47 6 -96 13 -110 15 -45 7 -284
44 -320 49 -19 3 -87 14 -150 25 -63 10 -131 22 -151 25 -20 3 -42 8 -50 10
-8 3 -32 8 -54 11 -22 4 -44 8 -50 9 -5 1 -37 8 -70 15 -33 7 -123 28 -200 46
-77 19 -153 36 -168 39 -56 10 -323 87 -597 172 -215 67 -697 243 -849 310
-29 13 -57 24 -62 24 -4 0 -42 16 -83 35 -42 19 -118 52 -168 74 -227 94 -785
367 -1163 568 -486 259 -1163 650 -1950 1128 -205 124 -708 424 -880 525 -22
13 -105 61 -185 108 -481 280 -1005 564 -1415 766 -223 110 -332 162 -425 204
-25 11 -97 43 -160 72 -190 86 -718 300 -740 300 -6 0 -10 -56 -10 -160 0
-144 2 -161 18 -167 9 -3 85 -33 167 -65 193 -77 376 -156 700 -303 214 -97
983 -491 1140 -585 17 -9 61 -34 98 -54 37 -20 84 -46 105 -58 20 -12 66 -38
102 -58 36 -20 126 -72 200 -115 74 -43 160 -93 190 -110 145 -84 325 -192
877 -523 568 -341 1035 -619 1133 -674 25 -14 119 -68 210 -120 592 -339 950
-528 1528 -804 74 -35 135 -64 137 -64 2 0 43 -18 91 -40 48 -23 130 -59 183
-81 53 -22 114 -49 136 -58 69 -32 425 -172 535 -212 118 -42 643 -214 705
-231 22 -6 60 -17 85 -25 51 -17 372 -100 410 -106 14 -3 43 -10 65 -15 22 -6
52 -13 68 -16 15 -3 35 -7 45 -10 9 -3 28 -7 42 -10 14 -2 57 -11 95 -19 39
-9 84 -17 100 -20 17 -3 57 -10 90 -15 136 -24 186 -33 212 -37 15 -2 98 -15
183 -29 85 -13 171 -26 190 -29 19 -3 103 -14 185 -26 83 -11 173 -23 200 -26
28 -3 64 -7 80 -10 17 -2 48 -6 70 -9 22 -3 63 -7 90 -11 28 -3 68 -8 90 -10
22 -2 123 -13 225 -24 102 -11 219 -22 260 -25 41 -4 95 -8 120 -11 25 -2 81
-7 125 -10 44 -3 109 -8 145 -11 68 -6 116 -9 320 -19 69 -4 130 -8 137 -10
20 -7 624 -20 898 -20 267 0 810 12 855 19 14 3 75 7 135 11 227 12 262 15
325 22 36 3 68 6 72 5 4 -1 52 3 105 9 54 6 118 12 143 14 85 8 238 26 260 30
13 2 55 7 94 11 39 3 74 8 77 10 3 2 33 6 65 10 32 3 61 7 64 9 3 2 35 6 70
10 36 3 72 8 80 10 8 2 60 11 115 20 55 8 125 20 155 26 30 5 73 12 95 15 21
3 42 7 46 10 4 2 24 6 45 9 35 5 313 63 419 86 22 5 51 12 64 15 14 3 61 14
105 25 45 11 92 22 106 25 23 5 141 36 370 99 298 81 951 305 1125 385 11 5
70 29 130 54 214 87 378 163 710 331 497 252 849 465 1318 797 l168 119 72
-61 c738 -632 1545 -1252 2492 -1915 419 -293 784 -544 1525 -1046 1913 -1297
2766 -1945 3436 -2614 121 -121 258 -262 303 -313 l83 -94 -134 -136 c-153
-158 -240 -275 -309 -417 -65 -133 -90 -232 -92 -365 -4 -298 146 -562 385
-679 111 -55 181 -71 318 -77 144 -5 212 7 318 58 212 100 371 351 397 623 6
62 2 103 -20 220 -16 84 -175 360 -344 597 -50 71 -89 133 -86 138 3 5 81 67
173 137 92 70 246 191 342 269 299 240 541 415 860 618 85 55 179 114 207 133
29 18 55 33 58 33 2 0 35 19 72 41 260 159 820 444 1238 629 215 95 901 373
990 400 22 7 45 15 50 18 9 6 71 28 195 71 30 11 154 54 275 96 121 42 270 92
330 111 61 19 155 50 210 69 55 18 116 38 135 43 19 5 103 31 185 57 83 26
171 54 198 61 60 18 85 25 417 124 151 45 298 88 325 95 28 8 104 30 170 50
66 20 129 38 140 40 11 3 52 14 90 26 88 26 270 78 311 88 18 5 36 11 41 14 5
3 23 9 39 11 16 3 76 20 134 37 58 17 114 33 125 36 11 3 65 19 120 35 55 16
123 36 150 43 28 8 82 24 120 35 39 12 95 28 125 36 30 9 92 27 137 40 46 14
84 25 85 25 2 0 98 29 213 65 116 35 220 67 233 69 13 3 40 12 60 19 20 8 84
28 142 46 58 17 159 49 225 70 286 93 501 163 509 168 4 2 74 27 155 54 186
64 600 217 801 298 176 71 524 217 548 230 10 5 58 27 107 48 134 59 545 253
839 396 143 70 265 125 272 122 7 -3 104 -78 216 -167 167 -134 411 -319 688
-524 258 -190 731 -505 1090 -725 546 -335 1213 -683 1760 -917 129 -55 325
-134 422 -169 40 -15 109 -40 153 -56 318 -116 748 -241 1005 -292 186 -37
231 -45 265 -51 389 -61 650 -80 1085 -80 226 0 500 9 645 20 176 15 313 27
340 30 63 8 122 15 180 21 70 7 458 61 495 68 13 3 42 8 65 11 89 13 334 58
565 105 300 62 262 54 438 96 81 19 159 37 173 40 34 6 452 116 549 143 41 12
85 24 98 27 12 2 75 20 140 39 64 20 146 44 182 55 390 116 1115 360 1335 450
17 7 39 16 50 20 259 100 472 185 479 192 6 4 16 8 22 8 13 0 77 27 549 228
229 97 891 385 1145 497 80 35 338 146 560 240 328 139 899 365 1129 447 316
112 913 304 1002 323 9 2 69 18 135 35 65 18 175 46 244 62 69 16 134 31 145
34 11 3 34 8 50 10 17 3 82 16 145 30 63 13 133 26 155 29 22 4 47 8 55 10 8
3 31 7 50 10 509 75 753 95 1177 96 480 0 893 -44 1348 -146 88 -20 167 -37
175 -39 8 -1 33 -8 55 -14 22 -6 51 -13 65 -16 31 -6 206 -53 365 -99 127 -37
545 -174 630 -207 28 -11 104 -40 170 -65 66 -26 134 -52 150 -60 17 -7 55
-23 85 -34 30 -12 64 -26 75 -31 11 -5 43 -18 70 -30 28 -12 64 -28 80 -35 17
-8 125 -59 240 -113 187 -87 391 -191 615 -313 301 -163 758 -459 1063 -687
l187 -141 0 189 0 189 -127 92 c-158 115 -516 351 -684 452 -544 325 -1270
674 -1784 857 -253 90 -479 167 -579 196 -67 20 -150 45 -186 55 -36 11 -77
22 -92 24 -15 3 -39 10 -53 15 -14 5 -36 12 -48 14 -12 3 -65 16 -117 30 -123
31 -430 100 -490 110 -14 2 -63 11 -110 20 -47 8 -107 18 -135 22 -27 3 -59 8
-70 10 -35 7 -257 33 -335 39 -41 3 -102 8 -135 11 -33 3 -195 8 -360 10 -288
4 -452 -3 -765 -31 -65 -6 -268 -30 -325 -39 -16 -3 -46 -7 -65 -10 -150 -20
-368 -60 -525 -96 -44 -9 -116 -25 -160 -35 -140 -31 -415 -102 -575 -149 -85
-26 -162 -48 -170 -50 -51 -13 -638 -207 -690 -229 -26 -10 -83 -31 -235 -86
-77 -28 -184 -70 -260 -101 -11 -5 -63 -25 -115 -45 -52 -21 -108 -43 -125
-50 -16 -7 -104 -43 -195 -80 -212 -87 -404 -167 -461 -193 -25 -12 -68 -30
-95 -40 -27 -11 -74 -31 -104 -45 -30 -14 -102 -45 -160 -70 -172 -74 -486
-211 -620 -270 -516 -228 -1421 -603 -1670 -692 -36 -12 -96 -34 -135 -48
-248 -90 -615 -214 -940 -318 -92 -30 -596 -178 -627 -184 -9 -2 -50 -13 -90
-24 -170 -47 -717 -181 -843 -206 -11 -3 -110 -23 -220 -46 -110 -22 -213 -43
-230 -46 -16 -2 -93 -15 -170 -29 -77 -13 -151 -26 -165 -29 -63 -10 -320 -47
-360 -51 -25 -2 -56 -6 -70 -9 -14 -3 -50 -7 -80 -10 -30 -3 -98 -10 -150 -15
-157 -17 -171 -19 -265 -26 -49 -3 -101 -8 -115 -10 -14 -3 -208 -7 -431 -11
-360 -5 -651 3 -814 22 -16 2 -59 7 -95 10 -36 3 -76 7 -90 9 -41 7 -162 25
-201 30 -20 3 -42 8 -50 10 -8 3 -31 7 -51 10 -44 7 -287 60 -373 82 -33 9
-68 18 -77 20 -31 7 -50 12 -158 45 -58 17 -109 32 -115 33 -30 6 -285 94
-450 155 -213 78 -488 190 -620 251 -33 15 -112 51 -175 80 -572 260 -1282
663 -1956 1111 -288 191 -597 410 -864 612 -183 139 -412 318 -439 343 -11 10
0 19 66 52 l79 40 109 -93 109 -93 181 90 c805 403 1755 935 2496 1398 2094
1310 3576 2678 4419 4080 325 540 574 1238 690 1935 138 829 91 1597 -135
2212 -48 129 -158 356 -225 463 -131 210 -322 425 -496 558 -44 34 -103 90
-131 124 -73 90 -274 283 -368 354 -483 365 -1076 612 -1590 663 -104 11 -424
11 -495 1z m470 -304 c8 -2 38 -7 65 -10 78 -8 166 -26 345 -71 79 -19 496
-184 470 -184 -3 -1 -43 6 -90 14 -143 25 -442 31 -600 11 -972 -124 -1851
-908 -2602 -2321 -226 -424 -413 -859 -624 -1447 -54 -152 -102 -272 -105
-265 -4 7 -39 127 -79 267 -81 283 -149 489 -216 652 -24 60 -44 115 -44 122
0 13 38 113 71 185 11 24 29 64 39 90 38 95 184 402 272 571 258 498 522 905
819 1260 125 152 389 417 520 526 452 372 918 574 1409 608 68 4 330 -1 350
-8z m-23016 -652 c158 -34 364 -117 491 -199 l40 -25 -80 7 c-513 49 -976
-151 -1430 -618 -157 -161 -275 -307 -400 -494 -189 -283 -303 -504 -461 -895
-56 -140 -105 -248 -107 -240 -3 8 -38 114 -78 235 -78 238 -138 388 -201 503
l-39 74 95 178 c124 232 197 349 335 535 332 449 704 750 1104 894 88 32 232
62 322 68 44 3 82 7 85 10 11 10 217 -11 324 -33z m16509 -189 c12 -2 58 -9
102 -15 151 -22 346 -74 470 -125 73 -29 246 -118 241 -122 -3 -3 -33 0 -68 6
-135 23 -344 32 -490 21 -324 -24 -549 -85 -843 -230 -475 -233 -872 -600
-1230 -1135 -377 -565 -612 -1182 -702 -1845 -25 -189 -25 -720 0 -930 123
-1015 533 -2033 1262 -3135 619 -935 1493 -1930 2449 -2786 l38 -35 -87 -43
c-76 -37 -89 -41 -103 -29 -1555 1305 -2809 2811 -3511 4215 -50 100 -91 184
-91 187 0 2 -21 49 -46 103 -25 54 -52 112 -59 128 -23 51 -132 329 -140 355
-4 14 -13 39 -20 55 -16 35 -98 290 -126 390 -34 121 -107 421 -114 470 -2 17
-13 86 -24 155 -41 248 -53 391 -56 675 -2 186 2 317 11 390 7 61 15 130 18
155 6 48 27 166 51 285 35 174 134 500 192 632 7 18 20 50 27 70 24 67 126
285 183 393 344 648 802 1152 1318 1450 77 44 269 140 281 140 3 0 20 6 37 14
18 8 66 26 107 39 201 66 340 94 515 104 55 3 102 8 105 10 5 5 262 -5 303
-12z m-20538 -254 c136 -34 147 -37 250 -80 95 -39 245 -119 273 -145 9 -9 -9
-9 -75 1 -123 20 -416 11 -544 -16 -420 -86 -759 -329 -1033 -739 -255 -382
-447 -941 -540 -1567 -49 -331 -60 -494 -61 -885 0 -398 7 -504 56 -800 221
-1340 888 -2652 1998 -3930 203 -233 339 -379 608 -651 l253 -256 -59 -46 -60
-46 -68 61 c-326 293 -764 731 -1072 1073 -823 914 -1419 1847 -1781 2790 -50
130 -186 532 -195 575 -2 8 -10 42 -19 75 -30 109 -43 159 -59 230 -47 213
-56 257 -68 325 -7 41 -13 77 -14 80 -1 3 -5 31 -9 64 -4 32 -9 68 -11 80 -6
33 -27 255 -30 311 -5 98 -6 572 -1 611 3 21 8 84 11 139 6 117 27 312 50 470
34 239 119 597 193 815 160 471 353 803 619 1061 200 193 383 300 641 375 158
45 238 53 462 49 162 -3 222 -8 285 -24z m9236 -15949 c179 -251 295 -459 307
-548 16 -120 -35 -274 -123 -372 -80 -89 -189 -124 -327 -103 -179 26 -296
135 -344 321 -56 214 37 433 301 709 54 55 100 101 104 101 3 0 40 -49 82
-108z"/>
</g>
</svg>
